<?xml version="1.0" encoding="UTF-8"?>
<svg version="1.1" xmlns="http://www.w3.org/2000/svg" width="1000" height="1000">
<path d="M0 0 C7.33486049 5.62907898 11.4549573 13.56524656 15.26171875 21.78515625 C15.74640625 20.95113281 16.23109375 20.11710937 16.73046875 19.2578125 C25.17536056 5.08013836 34.48289866 -5.00079021 50.63671875 -10.21484375 C64.49116455 -13.33209405 78.00087736 -11.40448787 90.44921875 -4.58984375 C101.90732306 2.91270753 109.8950427 13.54436537 113.83813477 26.7097168 C116.92688146 41.84368548 114.31042197 56.27238764 106.01171875 69.09765625 C101.14882995 75.61690019 95.30426081 80.74496107 88.26171875 84.78515625 C89.49148437 84.82253906 90.72125 84.85992187 91.98828125 84.8984375 C93.62112276 84.96412653 95.25393393 85.03057284 96.88671875 85.09765625 C97.69496094 85.12021484 98.50320312 85.14277344 99.3359375 85.16601562 C105.22434712 85.42931849 109.6753022 86.3505629 114.125 90.5390625 C114.84236328 91.43431641 114.84236328 91.43431641 115.57421875 92.34765625 C116.06535156 92.94707031 116.55648437 93.54648437 117.0625 94.1640625 C119.66189524 97.67790298 119.34132221 100.48656936 119.26171875 104.78515625 C119.86306641 104.43437012 120.46441406 104.08358398 121.08398438 103.72216797 C161.68359375 80.0390625 161.68359375 80.0390625 164.41601562 78.44970703 C166.46940289 77.24860937 168.51687356 76.03737678 170.56054688 74.81982422 C172.18379883 73.85713623 172.18379883 73.85713623 173.83984375 72.875 C174.82887695 72.28452881 175.81791016 71.69405762 176.83691406 71.08569336 C179.26171875 69.78515625 179.26171875 69.78515625 181.26171875 69.78515625 C181.29362789 79.41014035 181.31312873 89.03512821 181.32421875 98.66015625 C181.32507477 99.39761581 181.32593079 100.13507538 181.32681274 100.8948822 C181.35474683 128.27791945 181.11685364 155.65457603 180.76171875 183.03515625 C180.74378202 184.41865391 180.74378202 184.41865391 180.72548294 185.83010101 C180.57808728 197.14855463 180.42353077 208.46689965 180.26171875 219.78515625 C176.5660291 218.58307871 173.22243434 217.36844985 169.85546875 215.421875 C169.04005615 214.95354248 168.22464355 214.48520996 167.38452148 214.00268555 C166.51899658 213.49777588 165.65347168 212.99286621 164.76171875 212.47265625 C163.85043213 211.94647705 162.93914551 211.42029785 162.00024414 210.87817383 C153.37291996 205.88356226 144.79212411 200.80916216 136.21875 195.72265625 C130.58400552 192.37973882 124.92878288 189.07300991 119.26171875 185.78515625 C119.17921875 186.81640625 119.09671875 187.84765625 119.01171875 188.91015625 C117.9099638 194.60255681 115.94169454 197.60883947 111.18920898 200.93652344 C106.84138604 203.31650907 102.91211304 203.29873091 98.046875 203.17578125 C97.19113388 203.17012146 96.33539276 203.16446167 95.45372009 203.15863037 C92.74329664 203.13639132 90.03423684 203.0862205 87.32421875 203.03515625 C85.47723275 203.01507503 83.63022585 202.99682711 81.78320312 202.98046875 C77.27552305 202.93656772 72.76885142 202.86762894 68.26171875 202.78515625 C68.29652344 203.71070313 68.33132812 204.63625 68.3671875 205.58984375 C68.22876234 209.78361327 66.86798977 211.54492741 64.26171875 214.78515625 C59.66470211 218.834909 57.36903512 219.917924 51.26171875 219.78515625 C60.94898236 240.0574007 70.65207966 260.32189285 80.42663574 280.55221558 C92.38748333 305.31042182 92.38748333 305.31042182 97.78320312 316.6953125 C99.15917319 319.57085363 100.55641614 322.43477286 101.96070862 325.29652405 C103.20789257 327.84766206 104.43832959 330.4066715 105.66598511 332.96725464 C106.26600755 334.20953759 106.87293408 335.44851216 107.48709106 336.68386841 C108.34297935 338.4079085 109.17205294 340.14518116 110 341.8828125 C110.48509033 342.87804932 110.97018066 343.87328613 111.4699707 344.89868164 C112.47617167 348.56698692 111.83010223 350.37172246 110.26171875 353.78515625 C108.26171875 355.78515625 108.26171875 355.78515625 104.88671875 356.16015625 C100.52845059 355.70930092 99.98265449 355.09415352 97.26171875 351.78515625 C95.85125626 349.2403347 94.56040353 346.7338327 93.3203125 344.109375 C92.95633865 343.35630569 92.59236481 342.60323639 92.21736145 341.8273468 C91.03666505 339.37953249 89.8678795 336.92623632 88.69921875 334.47265625 C87.88256585 332.77373749 87.06517882 331.07517142 86.24707031 329.37695312 C84.25693078 325.24102484 82.27602225 321.10076899 80.29925537 316.95843506 C78.91138009 314.05131845 77.51828871 311.14671281 76.125 308.2421875 C74.39688527 304.63608336 72.67348384 301.02777873 70.953125 297.41796875 C67.80631143 290.82183156 64.62813633 284.24085952 61.44921875 277.66015625 C61.15744751 277.05598877 60.86567627 276.45182129 60.56506348 275.8293457 C57.51902539 269.52200777 54.47064663 263.21580797 51.41853333 256.91140747 C50.16623034 254.3242334 48.91480619 251.73663473 47.66348267 249.14898682 C46.7950015 247.35394744 45.92523621 245.55952952 45.05541992 243.76513672 C44.51506104 242.64768066 43.97470215 241.53022461 43.41796875 240.37890625 C42.62132812 238.75855469 42.62132812 238.75855469 41.80859375 237.10546875 C40.73624272 234.80370517 39.75173562 232.45976053 38.83984375 230.08984375 C38.370625 228.90648437 37.90140625 227.723125 37.41796875 226.50390625 C37.02416016 225.43076172 36.63035156 224.35761719 36.22460938 223.25195312 C34.54640824 220.60643087 34.54640824 220.60643087 32.10128021 220.32550812 C31.28874031 220.26131432 30.47620041 220.19712051 29.63903809 220.13098145 C28.41263737 220.02515118 28.41263737 220.02515118 27.16146088 219.91718292 C26.53454597 219.87361412 25.90763107 219.83004532 25.26171875 219.78515625 C25.26540592 220.48660861 25.26909309 221.18806097 25.272892 221.91076946 C25.36122824 238.97841997 25.4274211 256.04601242 25.46896744 273.11384106 C25.48959297 281.36772559 25.51771328 289.62145754 25.56347656 297.87524414 C25.60334475 305.0692301 25.62915163 312.26310555 25.63807273 319.45719892 C25.64328756 323.26649328 25.65554372 327.0754715 25.68463898 330.88466454 C25.71180807 334.47076737 25.72016091 338.05642411 25.71414948 341.64262009 C25.715773 343.58475689 25.73728808 345.5268452 25.75939941 347.46885681 C25.75390076 348.62846924 25.7484021 349.78808167 25.74273682 350.98283386 C25.74642399 351.98851001 25.75011116 352.99418615 25.75391006 354.03033733 C25.12164058 357.56918064 23.7734379 359.25588687 21.26171875 361.78515625 C18.26171875 362.34765625 18.26171875 362.34765625 15.26171875 361.78515625 C12.95896319 359.91805715 11.58348004 358.42867884 10.26171875 355.78515625 C10.16830743 353.98593516 10.13980526 352.18320482 10.14146423 350.38156128 C10.13940224 348.66094986 10.13940224 348.66094986 10.13729858 346.90557861 C10.1426915 345.00881378 10.1426915 345.00881378 10.14819336 343.07373047 C10.14847532 341.73355105 10.14831732 340.39337147 10.14775085 339.05319214 C10.14746324 335.40878524 10.15335424 331.76441108 10.16032481 328.12001181 C10.16656424 324.3136623 10.16716262 320.50731209 10.16835022 316.70095825 C10.17146179 309.49032666 10.17967285 302.27971017 10.18969971 295.06908524 C10.20086624 286.86121646 10.20637266 278.65334696 10.21139514 270.44547248 C10.22185559 253.55869165 10.23945168 236.67192555 10.26171875 219.78515625 C4.88661155 219.42573322 -0.54338163 219.12828144 -5.73828125 220.78515625 C-9.64729419 224.21112969 -11.53643333 228.47401661 -13.64160156 233.13598633 C-14.2921963 234.45248912 -14.9483162 235.76627358 -15.60948181 237.07749939 C-17.3820189 240.63073343 -19.07588159 244.21664269 -20.75810719 247.81332231 C-22.53481788 251.57620714 -24.38372638 255.30325879 -26.2255249 259.03459167 C-29.70171279 266.10379607 -33.11487314 273.20148991 -36.50505233 280.31227559 C-41.48397543 290.747536 -46.56203101 301.13446225 -51.63352585 311.52495098 C-52.38227411 313.05946454 -53.13095858 314.59400922 -53.87957764 316.12858582 C-54.24517375 316.87784118 -54.61076986 317.62709654 -54.98744464 318.39905661 C-57.1561983 322.84882055 -59.30885803 327.30592734 -61.44697714 331.77049029 C-62.77710257 334.54671331 -64.11309401 337.32009272 -65.4496479 340.09322548 C-66.06701721 341.37852413 -66.6814308 342.6652474 -67.29263878 343.9534874 C-68.12801316 345.71382085 -68.97442222 347.46890502 -69.8213501 349.22370911 C-70.29096287 350.20688519 -70.76057564 351.19006128 -71.2444191 352.20303059 C-73.31224126 355.77724035 -75.29201956 358.27896466 -79.23828125 359.66015625 C-82.14987544 359.80573596 -83.38442975 359.4896694 -85.73828125 357.78515625 C-87.60633411 355.2944191 -87.77292852 354.11012078 -87.44062138 350.99333763 C-86.72393521 347.71962574 -85.68894426 345.19371779 -84.18833923 342.20425415 C-83.64845871 341.11899445 -83.10857819 340.03373474 -82.55233765 338.91558838 C-81.95748566 337.7402655 -81.36263367 336.56494263 -80.74975586 335.35400391 C-80.11838688 334.09239507 -79.48772365 332.83043284 -78.85771179 331.56814575 C-77.15009544 328.15176754 -75.43267261 324.7404054 -73.7134254 321.32986879 C-71.91662501 317.76130857 -70.12891287 314.1882015 -68.34022522 310.61557007 C-64.95381653 303.8551746 -61.55927285 297.09889848 -58.16177613 290.34406984 C-54.2933511 282.65196171 -50.43403426 274.955297 -46.57546985 267.25823903 C-38.6398532 251.42879229 -30.69283565 235.60509423 -22.73828125 219.78515625 C-23.29837891 219.31029785 -23.85847656 218.83543945 -24.43554688 218.34619141 C-25.16451172 217.72019043 -25.89347656 217.09418945 -26.64453125 216.44921875 C-27.73217773 215.52036865 -27.73217773 215.52036865 -28.84179688 214.57275391 C-31.09837386 212.44573837 -32.09832347 210.82495569 -32.73828125 207.78515625 C-32.75794556 206.11860559 -32.76042769 204.45167577 -32.73828125 202.78515625 C-34.41784912 202.80872192 -34.41784912 202.80872192 -36.13134766 202.83276367 C-40.30217236 202.88723519 -44.47296587 202.92156877 -48.64404297 202.94995117 C-50.44618017 202.96499865 -52.24828098 202.98544155 -54.05029297 203.01147461 C-56.64690146 203.04803646 -59.243024 203.06492306 -61.83984375 203.078125 C-63.0401976 203.10135078 -63.0401976 203.10135078 -64.26480103 203.12504578 C-70.00814066 203.12675739 -74.23666315 202.0927285 -78.6015625 198.06640625 C-79.07980469 197.47859375 -79.55804688 196.89078125 -80.05078125 196.28515625 C-80.54191406 195.69734375 -81.03304687 195.10953125 -81.5390625 194.50390625 C-84.36357553 190.45574426 -83.89976976 186.03043297 -83.9152832 181.30981445 C-83.9218544 180.44440536 -83.9284256 179.57899628 -83.93519592 178.68736267 C-83.95492317 175.82022006 -83.96659134 172.95312986 -83.9765625 170.0859375 C-83.98063803 169.10574331 -83.98471355 168.12554913 -83.98891258 167.11565208 C-84.00977263 161.92581773 -84.02407365 156.73600979 -84.03344727 151.54614258 C-84.04450093 146.19404011 -84.07888912 140.84235463 -84.11861897 135.49039936 C-84.14480775 131.36817164 -84.15314121 127.24604283 -84.15672874 123.12373924 C-84.16159022 121.15144223 -84.17319164 119.17914951 -84.19176674 117.20693398 C-84.21620225 114.44011376 -84.21518493 111.67436655 -84.20825195 108.9074707 C-84.22106201 108.09937958 -84.23387207 107.29128845 -84.24707031 106.45870972 C-84.19035126 100.21866773 -82.63218622 94.84085669 -78.25549793 90.21947193 C-73.50775064 86.0965591 -69.66895033 85.61556619 -63.55078125 85.22265625 C-62.27847656 85.13886719 -61.00617188 85.05507813 -59.6953125 84.96875 C-58.71949219 84.90816406 -57.74367188 84.84757812 -56.73828125 84.78515625 C-57.29515625 84.44484375 -57.85203125 84.10453125 -58.42578125 83.75390625 C-71.58492058 75.39607451 -79.68279677 64.64810491 -83.296875 49.43359375 C-85.66840923 35.20438839 -82.6898998 21.71258408 -74.73828125 9.78515625 C-67.26094325 -0.56926448 -56.25811852 -7.98850536 -43.70703125 -10.8125 C-27.15570552 -13.0556402 -13.73868431 -9.60164229 0 0 Z M-62.484375 13.69921875 C-70.33148345 23.52278094 -72.52297384 33.41554761 -71.73828125 45.78515625 C-69.5854638 57.90534897 -62.6206114 66.34642218 -52.82421875 73.4296875 C-44.55435559 78.80354989 -34.24139269 79.72513224 -24.61328125 78.22265625 C-14.42011342 75.73651775 -5.88447785 69.93726741 -0.05078125 61.28125 C5.90879093 51.21014604 7.35687617 41.27771093 5.26171875 29.78515625 C2.54035368 19.69835746 -3.3456462 11.49408287 -12.3046875 6.0703125 C-29.61755581 -3.07243818 -49.01274277 -1.06834231 -62.484375 13.69921875 Z M33.94921875 14.09765625 C26.23157307 23.81048875 24.48357628 33.64613374 25.26171875 45.78515625 C27.32096541 57.36233828 33.81510831 65.97480919 43.26171875 72.78515625 C53.00634757 78.74991783 63.09038417 79.70786082 74.26171875 77.78515625 C85.02296198 74.59969621 94.10068367 66.7829768 99.51171875 57.03515625 C104.21269764 46.80708503 104.42480275 35.14551083 100.63671875 24.59765625 C95.73310762 13.64801564 88.00097457 7.01511796 77.07421875 2.41015625 C61.11247605 -2.93278003 45.18183312 1.94574863 33.94921875 14.09765625 Z M15.26171875 55.78515625 C14.66037109 57.01878906 14.66037109 57.01878906 14.046875 58.27734375 C8.45609531 69.25606304 2.23898945 77.75931674 -8.8671875 83.7265625 C-9.48464844 84.07589844 -10.10210937 84.42523438 -10.73828125 84.78515625 C-10.73828125 85.11515625 -10.73828125 85.44515625 -10.73828125 85.78515625 C6.75171875 85.78515625 24.24171875 85.78515625 42.26171875 85.78515625 C40.23065733 84.26186018 38.19888851 82.73928204 36.1484375 81.2421875 C26.56204501 74.07367731 21.22120727 66.68513102 16.26171875 55.78515625 C15.93171875 55.78515625 15.60171875 55.78515625 15.26171875 55.78515625 Z M163.31640625 92.91796875 C162.49769043 93.38799316 161.67897461 93.85801758 160.83544922 94.34228516 C159.49957764 95.11838135 159.49957764 95.11838135 158.13671875 95.91015625 C157.21906738 96.43915527 156.30141602 96.9681543 155.35595703 97.51318359 C152.32142982 99.26518595 149.29123652 101.02450714 146.26171875 102.78515625 C145.17503906 103.41550781 144.08835937 104.04585937 142.96875 104.6953125 C137.66424236 107.77354378 132.36255899 110.85663281 127.06640625 113.94921875 C126.21030762 114.4488916 125.35420898 114.94856445 124.47216797 115.46337891 C122.70436726 116.52046672 120.97553109 117.64261469 119.26171875 118.78515625 C118.71425098 121.04670498 118.71425098 121.04670498 118.66723633 123.71875 C118.61581985 124.74742187 118.56440338 125.77609375 118.51142883 126.8359375 C118.36448698 131.56740958 118.23325704 136.29756745 118.15649414 141.03076172 C118.1019361 143.52035696 118.01341457 146.0094545 117.88989258 148.49658203 C116.70533586 161.66954572 116.70533586 161.66954572 120.65682983 173.79418945 C124.2876084 177.16452704 128.50984911 179.05550212 133.07339478 180.86914062 C136.50944403 182.30744448 139.59844122 184.25886267 142.7734375 186.19140625 C143.97206122 186.88333926 145.17322476 187.57089224 146.37695312 188.25390625 C148.80467943 189.63375782 151.22892796 191.01934121 153.65039062 192.41015625 C154.83700232 193.08765531 156.02384226 193.76475481 157.2109375 194.44140625 C158.77847778 195.33569336 158.77847778 195.33569336 160.37768555 196.24804688 C162.96810701 197.62866937 165.53137508 198.72122972 168.26171875 199.78515625 C168.39472204 190.29830084 168.52522718 180.81141483 168.65287018 171.32448578 C168.71226477 166.91536318 168.77239931 162.50625374 168.83447266 158.09716797 C169.14974435 135.65822181 169.33931244 113.22644484 169.26171875 90.78515625 C166.69600107 90.78515625 165.53853781 91.63525867 163.31640625 92.91796875 Z M-22.73828125 202.78515625 C-22.40828125 204.43515625 -22.07828125 206.08515625 -21.73828125 207.78515625 C-18.043012 210.24866908 -16.17221739 210.04936592 -11.76000977 210.07568359 C-11.05398621 210.08240082 -10.34796265 210.08911804 -9.62054443 210.09603882 C-7.2860206 210.11504096 -4.95178386 210.11894396 -2.6171875 210.12109375 C-0.99437847 210.12751972 0.62842939 210.13424793 2.25123596 210.14126587 C5.65327643 210.15324385 9.05521532 210.15694612 12.45727539 210.15576172 C16.81664386 210.1555584 21.17536135 210.18287104 25.53457546 210.21730614 C28.88632703 210.23954244 32.23792106 210.24360029 35.58973885 210.24254227 C37.19691272 210.24490276 38.80409065 210.25375154 40.41119194 210.269207 C42.65927631 210.28880374 44.90594559 210.28305552 47.15405273 210.27099609 C48.43295883 210.27384613 49.71186493 210.27669617 51.02952576 210.27963257 C54.33089328 210.03608646 54.33089328 210.03608646 56.70594788 207.94229126 C58.5541971 205.82289637 58.5541971 205.82289637 58.26171875 202.78515625 C31.53171875 202.78515625 4.80171875 202.78515625 -22.73828125 202.78515625 Z " fill="#FFFFFF" transform="translate(138.73828125,217.21484375)"/>
<path d="M0 0 C4.95 0 9.9 0 15 0 C15 15.84 15 31.68 15 48 C17.97 45.36 20.94 42.72 24 40 C32.67680259 35.2833791 42.66236535 34.62594523 52.20703125 36.6953125 C61.76151593 39.55564879 68.40388411 43.98341115 73.68359375 52.5 C81.56689091 67.47124684 82.53661836 86.91579732 78.0390625 103.140625 C74.51290616 112.84418304 69.34971978 121.33266004 60.0625 126.3125 C49.89059144 130.84415334 38.94024324 131.65336226 28.3203125 128.05078125 C22.58983951 125.45566806 18.40756137 121.40756137 14 117 C13.01 120.63 12.02 124.26 11 128 C7.37 128 3.74 128 0 128 C0 85.76 0 43.52 0 0 Z M22.46484375 53.52734375 C14.74197869 61.29139743 14.60870722 72.4619271 14.625 82.75 C14.62661133 83.80678955 14.62822266 84.8635791 14.62988281 85.95239258 C14.78956955 96.13711888 15.93545412 105.15198005 23 113 C28.78617018 117.4711315 35.88137577 118.23820364 43 118 C48.74256781 117.02830337 54.03239592 115.42104455 58 111 C65.9236648 98.16458977 66.79686479 83.04221238 64.25 68.375 C62.35576083 60.73227114 59.44960928 55.56847324 53 51 C43.98119338 45.75475264 30.5245435 47.02269195 22.46484375 53.52734375 Z " fill="#FFFFFF" transform="translate(888,449)"/>
<path d="M0 0 C9.70847714 7.76678171 13.7764213 15.10568519 16.8125 27.25 C16.8125 33.19 16.8125 39.13 16.8125 45.25 C-3.6475 45.25 -24.1075 45.25 -45.1875 45.25 C-42.43131152 61.31726574 -42.43131152 61.31726574 -32.1875 72.25 C-26.13737349 74.95352725 -21.15834939 75.76420336 -14.5625 75.6875 C-13.25841187 75.68266602 -13.25841187 75.68266602 -11.92797852 75.67773438 C-5.11583547 75.53216772 0.69827751 74.33786692 7.16015625 72.125 C9.8125 71.25 9.8125 71.25 12.8125 71.25 C12.8125 75.21 12.8125 79.17 12.8125 83.25 C-2.52443142 89.91823105 -19.12307275 91.99060225 -35.1875 86.25 C-44.78947616 82.22631475 -51.88691904 75.430812 -56.15625 65.92578125 C-62.12474387 50.43934828 -62.24190072 33.20797244 -55.74609375 17.83984375 C-50.63220661 7.50528297 -44.37370043 0.86436827 -33.44921875 -3.05859375 C-32.70285156 -3.28675781 -31.95648437 -3.51492188 -31.1875 -3.75 C-30.56746094 -3.94207031 -29.94742188 -4.13414062 -29.30859375 -4.33203125 C-19.19527255 -6.32489565 -8.98100341 -4.93074697 0 0 Z M-38.1875 14.25 C-42.96022672 20.84799048 -43.31346823 24.50968226 -44.1875 33.25 C-29.0075 33.25 -13.8275 33.25 1.8125 33.25 C0.77397702 20.9643814 0.77397702 20.9643814 -6.0625 11.3125 C-16.07184114 4.70633485 -29.63532189 5.46668195 -38.1875 14.25 Z " fill="#FFFFFF" transform="translate(554.1875,489.75)"/>
<path d="M0 0 C9.22100046 7.76811173 14.6842835 17.2519657 16.5625 29.1875 C16.84450143 32.63074422 16.89715934 36.0463078 16.875 39.5 C16.86936035 40.42280762 16.8637207 41.34561523 16.85791016 42.29638672 C16.62079089 55.65254024 13.30862112 68.01326326 3.4375 77.5625 C-6.64112195 85.88163371 -18.70710672 88.18184315 -31.4375 87.1875 C-43.51193897 84.79989907 -52.32284196 79.23478538 -59.4375 69.1875 C-67.65848595 54.68115707 -68.78119197 37.17556605 -64.46875 21.18359375 C-60.73713859 10.34213182 -54.59621577 2.33706057 -44.4375 -3.1875 C-30.51877267 -9.35540662 -12.64096974 -8.94702413 0 0 Z M-42.4375 11.1875 C-49.82994222 18.57994222 -51.55871735 29.21568552 -51.6875 39.25 C-51.59689835 49.49805386 -50.41793932 60.18275709 -43.4375 68.1875 C-38.0911612 73.40018033 -32.06143745 75.13473039 -24.69921875 75.21875 C-16.86853229 74.785517 -10.74350168 72.86819998 -5.1875 67.1875 C1.07331006 58.9937076 1.9213248 50.06010901 2 40.0625 C2.01015137 39.14460693 2.02030273 38.22671387 2.03076172 37.28100586 C1.91146927 27.89974706 0.03576854 18.61540996 -6.8515625 11.78515625 C-16.61583759 3.14752828 -32.34394605 2.77620504 -42.4375 11.1875 Z " fill="#FFFFFF" transform="translate(333.4375,491.8125)"/>
<path d="M0 0 C-1.31061591 4.23429756 -2.94356259 8.07407404 -5 12 C-13.30225711 10.20117763 -13.30225711 10.20117763 -16.77734375 9.19921875 C-30.33543178 5.35927704 -42.82183512 6.04259854 -55.56640625 12.25 C-65.1046258 17.93097002 -70.23531004 27.50800162 -73 38 C-76.78789798 55.10730011 -75.57076848 73.91727062 -66 89 C-59.98956171 96.96732518 -52.13058041 100.55095372 -42.5625 102.8125 C-40.7990625 102.9053125 -40.7990625 102.9053125 -39 103 C-38.0925 103.05027344 -37.185 103.10054687 -36.25 103.15234375 C-28.43457124 103.39178703 -21.23729416 102.33782289 -13.62890625 100.75390625 C-10.4346635 100.09030146 -7.21805754 99.53634292 -4 99 C-4 103.29 -4 107.58 -4 112 C-23.08770341 118.16373756 -44.21574218 120.39367866 -62.96875 111.609375 C-65.43677625 110.19695034 -67.71316862 108.68749453 -70 107 C-70.63164063 106.56042969 -71.26328125 106.12085938 -71.9140625 105.66796875 C-82.96570187 97.2210109 -88.87196877 81.89520266 -90.71875 68.48828125 C-92.30668305 48.7935005 -91.24517508 27.92060606 -77.93359375 12.08984375 C-58.21693785 -9.22007727 -25.62073839 -13.65135527 0 0 Z " fill="#FFFFFF" transform="translate(724,462)"/>
<path d="M0 0 C4.95 0 9.9 0 15 0 C15.0093457 1.95744141 15.01869141 3.91488281 15.02832031 5.93164062 C15.06393834 12.4217894 15.11779363 18.91158977 15.18390274 25.40149689 C15.22329857 29.33376152 15.25552535 33.26580487 15.27099609 37.19824219 C15.28621529 40.99811155 15.32075237 44.79737225 15.36830902 48.5969696 C15.38306897 50.04166859 15.39103791 51.4864545 15.39188385 52.93122864 C15.40216135 61.68798082 15.44141093 69.11579743 21.75 75.875 C29.8402346 79.9201173 38.83266425 79.81857336 47.4375 77.28125 C52.52936592 75.04391498 55.60575798 71.98532874 58 67 C62.46791147 53.77683938 61.56039927 39.38845491 61.6875 25.625 C61.72072709 23.13539928 61.75522159 20.64581514 61.79101562 18.15625 C61.87529896 12.10425895 61.94239844 6.05230141 62 0 C66.62 0 71.24 0 76 0 C76 29.7 76 59.4 76 90 C72.04 90 68.08 90 64 90 C63.15271797 85.76358987 62.91615922 82.27587998 63 78 C62.34 78 61.68 78 61 78 C60.72800781 78.598125 60.45601562 79.19625 60.17578125 79.8125 C57.03645306 85.65311058 51.93774797 88.30387299 45.8125 90.375 C34.78954076 93.38928748 22.96962075 93.12358486 12.64453125 87.78125 C5.46060577 82.92906768 2.22165905 76.16872579 0.42312622 67.84361267 C-0.46084428 61.90290372 -0.24120513 55.89442238 -0.1953125 49.90234375 C-0.19157506 48.45789284 -0.18873155 47.01343936 -0.18673706 45.56898499 C-0.17915806 41.79607958 -0.15956 38.023332 -0.1373291 34.25048828 C-0.11674601 30.3890191 -0.10770889 26.52752403 -0.09765625 22.66601562 C-0.07630771 15.11059733 -0.04117352 7.55534103 0 0 Z " fill="#FFFFFF" transform="translate(784,487)"/>
<path d="M0 0 C4.95 0 9.9 0 15 0 C19.35677178 10.13298145 23.11461011 20.42513949 26.8125 30.8125 C27.4329459 32.54831551 28.05355244 34.2840736 28.67431641 36.01977539 C33.18786622 48.6550055 37.63945299 61.31107905 42 74 C42.38200562 72.86800171 42.38200562 72.86800171 42.77172852 71.71313477 C48.68057568 54.25239368 54.79895207 36.87662516 61.125 19.5625 C61.46000519 18.64284454 61.79501038 17.72318909 62.14016724 16.77566528 C63.09275044 14.16302343 64.049453 11.55193401 65.0078125 8.94140625 C65.29588272 8.15121094 65.58395294 7.36101562 65.88075256 6.546875 C67.88453137 1.11546863 67.88453137 1.11546863 69 0 C71.53049402 -0.07313567 74.03304837 -0.09247527 76.5625 -0.0625 C77.62887695 -0.05573242 77.62887695 -0.05573242 78.71679688 -0.04882812 C80.47790013 -0.03700864 82.23896036 -0.01907263 84 0 C81.97803371 7.10638706 79.58781088 14.00002542 76.9375 20.89453125 C76.5492807 21.91311218 76.1610614 22.93169312 75.76107788 23.98114014 C74.51072601 27.25954698 73.25547945 30.53605377 72 33.8125 C71.1398096 36.06424681 70.27994757 38.31611909 69.42041016 40.56811523 C68.14015378 43.92206666 66.85958368 47.27589499 65.57754517 50.62916565 C63.14911619 56.98172172 60.73259457 63.33851564 58.3359375 69.703125 C58.07379456 70.39850876 57.81165161 71.09389252 57.54156494 71.81034851 C56.3700149 74.91852949 55.20074279 78.027514 54.03515625 81.13793945 C53.63941406 82.1868335 53.24367188 83.23572754 52.8359375 84.31640625 C52.33392822 85.65360718 52.33392822 85.65360718 51.82177734 87.01782227 C51 89 51 89 50 90 C47.30345146 90.07319621 44.63308542 90.09242537 41.9375 90.0625 C41.17888672 90.05798828 40.42027344 90.05347656 39.63867188 90.04882812 C37.75908129 90.0370068 35.87953101 90.01907078 34 90 C30.34241449 82.05481426 27.22499936 73.92392695 24.125 65.75 C23.56084794 64.26687447 22.99655462 62.78380266 22.43212891 61.30078125 C21.24035439 58.1678882 20.05034792 55.03433013 18.86132812 51.90039062 C17.28191383 47.73913704 15.69559097 43.58055243 14.10733032 39.42266846 C12.834959 36.09000916 11.56577224 32.75614298 10.29730225 29.42199707 C9.68859421 27.82350905 9.0787941 26.22543641 8.46783447 24.62780762 C5.35863498 16.49308714 2.3486382 8.39513228 0 0 Z " fill="#FFFFFF" transform="translate(359,487)"/>
<path d="M0 0 C42.83783784 0 42.83783784 0 51.375 8.3125 C55.25319347 14.72643535 55.63776963 20.81992299 54 28 C51.70057996 32.43459579 48.99195727 35.0585578 45 38 C44.34 38.66 43.68 39.32 43 40 C43.77923828 40.32871094 43.77923828 40.32871094 44.57421875 40.6640625 C49.76614497 43.02490141 52.71594609 45.32271109 56 50 C57.99591928 55.98775783 58.23883728 63.55047896 56.09375 69.5234375 C51.08149732 77.90932179 45.49178689 80.15246393 36 83 C24.12 83 12.24 83 0 83 C0 55.61 0 28.22 0 0 Z M10 9 C10 17.58 10 26.16 10 35 C15.7234375 35.0928125 15.7234375 35.0928125 21.5625 35.1875 C22.75174072 35.21481201 23.94098145 35.24212402 25.16625977 35.27026367 C31.2198889 35.31765718 35.72157733 35.08149675 41 32 C44.02571989 27.70542983 44.55531409 24.18293148 44 19 C42.6141808 14.76102362 41.67542364 13.37667857 37.75 11.1875 C31.19010222 9.11019904 24.8705601 8.86226178 18.0625 8.9375 C15.401875 8.958125 12.74125 8.97875 10 9 Z M10 44 C10 53.9 10 63.8 10 74 C15.7234375 74.0928125 15.7234375 74.0928125 21.5625 74.1875 C22.75174072 74.21481201 23.94098145 74.24212402 25.16625977 74.27026367 C32.47009423 74.32744497 37.62427891 73.84271249 43.375 69 C46.61238685 65.01552388 46.39323304 60.65666802 46.34765625 55.734375 C45.7928619 51.37082391 44.30241504 49.86209304 41 47 C34.41142627 43.45230645 26.9000906 43.87056585 19.625 43.9375 C16.44875 43.958125 13.2725 43.97875 10 44 Z " fill="#FFFFFF" transform="translate(60,608)"/>
<path d="M0 0 C40.51150895 0 40.51150895 0 50 7 C54.3836376 11.89468343 54.61820318 17.83025449 54.38671875 24.16015625 C53.65094032 29.56329683 51.49295098 32.68478128 47.375 36.3125 C46.59125 36.869375 45.8075 37.42625 45 38 C44.34 38.66 43.68 39.32 43 40 C43.53109375 40.23074219 44.0621875 40.46148438 44.609375 40.69921875 C50.10252815 43.23529128 53.46420591 45.67801062 56.078125 51.33203125 C58.18103683 57.41800067 57.76084704 63.93026446 55.375 69.875 C50.97826021 78.40984783 45.18671602 79.65937599 36 83 C24.12 83 12.24 83 0 83 C0 55.61 0 28.22 0 0 Z M10 9 C10 17.58 10 26.16 10 35 C13.83625 35.061875 17.6725 35.12375 21.625 35.1875 C22.82334473 35.21481201 24.02168945 35.24212402 25.25634766 35.27026367 C31.87636701 35.32195652 36.82060944 35.0697564 41.8125 30.25 C43.49161119 27.06852616 43.87801023 24.5986982 44 21 C42.50287478 16.27223614 41.15872346 13.6540217 37 11 C28.56193565 7.88773564 18.79896537 8.86033388 10 9 Z M10 44 C10 53.9 10 63.8 10 74 C13.795 74.0825 17.59 74.165 21.5 74.25 C22.68013672 74.28641602 23.86027344 74.32283203 25.07617188 74.36035156 C31.8864254 74.431627 36.21667167 73.65939255 42 70 C45.65099059 66.11346163 46.31389465 62.35318964 46.20703125 57.05859375 C45.87405283 53.74765737 44.91169319 51.71337098 43 49 C35.55445288 43.70220686 27.92543506 43.85057077 19.0625 43.9375 C16.071875 43.958125 13.08125 43.97875 10 44 Z " fill="#FFFFFF" transform="translate(762,608)"/>
<path d="M0 0 C1.23041016 -0.01224609 2.46082031 -0.02449219 3.72851562 -0.03710938 C17.34090356 -0.0586821 30.32399534 1.04025664 41.078125 10.23046875 C50.83709381 20.44124167 52.09661227 32.19903691 51.8984375 45.6640625 C51.55047038 56.04722939 48.09606917 65.77893083 40.6484375 73.2265625 C31.53934358 80.79065109 21.78691498 83.33189766 10.1015625 83.28515625 C9.39977875 83.2837413 8.697995 83.28232635 7.97494507 83.28086853 C5.75408496 83.2753129 3.53332916 83.26276892 1.3125 83.25 C-0.20182145 83.24497926 -1.7161445 83.24041736 -3.23046875 83.23632812 C-6.92451252 83.22535807 -10.61849606 83.20812449 -14.3125 83.1875 C-14.33562328 72.51330302 -14.35341501 61.83911194 -14.36431217 51.16489506 C-14.36954103 46.20896078 -14.37663874 41.25304358 -14.38793945 36.29711914 C-14.39876822 31.51851164 -14.40477681 26.73992062 -14.40737724 21.9613018 C-14.40923151 20.13396381 -14.41285216 18.30662676 -14.41823006 16.47929573 C-14.42544036 13.92896671 -14.42649095 11.37870663 -14.42602539 8.82836914 C-14.42962067 8.06520386 -14.43321594 7.30203857 -14.43692017 6.51574707 C-14.41841299 -2.79173412 -7.88161144 0.00399069 0 0 Z M-3.3125 9.1875 C-3.3125 30.6375 -3.3125 52.0875 -3.3125 74.1875 C16.95935397 74.98224558 16.95935397 74.98224558 33.27734375 65.69140625 C39.70625759 58.88524564 41.24366762 50.94336573 41.125 41.8125 C41.11670166 40.98395508 41.10840332 40.15541016 41.09985352 39.30175781 C40.86716897 30.83237144 39.3093726 23.73051591 33.5625 17.25 C23.17546232 7.97506485 9.80439077 9.1875 -3.3125 9.1875 Z " fill="#FFFFFF" transform="translate(922.3125,607.8125)"/>
<path d="M0 0 C44.74137931 0 44.74137931 0 57 12 C65.28607103 22.49818954 67.04060531 34.96352791 66 48 C64.35727945 60.12875336 59.81697846 68.36284148 50.50390625 76.2734375 C35.9191706 86.3303067 16.33659898 83 0 83 C0 55.61 0 28.22 0 0 Z M10 10 C9.90594858 11.9943173 9.88256751 13.99199543 9.88647461 15.98852539 C9.88655014 17.26977798 9.88662567 18.55103058 9.88670349 19.87110901 C9.89181091 21.27995848 9.89702691 22.68880756 9.90234375 24.09765625 C9.90420798 25.53112234 9.90563186 26.96458907 9.90663147 28.39805603 C9.91045628 32.17759957 9.92028623 35.9571049 9.93133545 39.7366333 C9.94155037 43.59069298 9.94612926 47.44475882 9.95117188 51.29882812 C9.96190854 58.86590287 9.97898451 66.43294609 10 74 C13.01578785 74.0441611 16.03091762 74.07624871 19.046875 74.1015625 C19.89233887 74.11517822 20.73780273 74.12879395 21.60888672 74.14282227 C30.9852497 74.20170764 40.58220135 72.67150465 47.5703125 65.83984375 C55.25613839 55.94906781 55.76849883 45.01541827 55 33 C53.93658316 24.96056873 50.23049011 19.16571938 44 14 C37.78847562 10.43649473 15.89158052 4.10841948 10 10 Z " fill="#FFFFFF" transform="translate(471,608)"/>
<path d="M0 0 C1.14339844 -0.01224609 2.28679688 -0.02449219 3.46484375 -0.03710938 C13.08817191 -0.05353144 24.66297794 -0.0360893 32.625 6.1875 C37.82606839 12.25162777 40.05066026 17.88882246 39.8984375 25.94140625 C39.14918936 32.09594453 36.87161339 37.50338931 32.1875 41.625 C29.48076993 43.72883892 26.57755027 45.45040782 23.625 47.1875 C24.21925781 48.13367188 24.81351563 49.07984375 25.42578125 50.0546875 C28.1679074 54.42666279 30.89809488 58.80601839 33.625 63.1875 C34.13756348 64.00992188 34.65012695 64.83234375 35.17822266 65.6796875 C36.70720019 68.13753683 38.2294752 70.59941452 39.75 73.0625 C40.23509033 73.84093262 40.72018066 74.61936523 41.2199707 75.42138672 C41.6655835 76.14600098 42.11119629 76.87061523 42.5703125 77.6171875 C42.96750488 78.25897949 43.36469727 78.90077148 43.77392578 79.56201172 C44.625 81.1875 44.625 81.1875 44.625 83.1875 C42.92398455 83.43266415 41.21256087 83.60614489 39.5 83.75 C38.07300781 83.90662109 38.07300781 83.90662109 36.6171875 84.06640625 C31.64262785 82.60521053 30.02639579 78.56676567 27.625 74.1875 C26.59630091 72.16218633 25.57982484 70.13062841 24.57421875 68.09375 C19.70635198 57.03856837 19.70635198 57.03856837 11.31982422 48.9921875 C6.01019013 47.68840995 2.27818869 48.4460982 -3.375 49.1875 C-3.375 60.4075 -3.375 71.6275 -3.375 83.1875 C-6.675 83.1875 -9.975 83.1875 -13.375 83.1875 C-13.39812328 72.51330302 -13.41591501 61.83911194 -13.42681217 51.16489506 C-13.43204103 46.20896078 -13.43913874 41.25304358 -13.45043945 36.29711914 C-13.46126822 31.51851164 -13.46727681 26.73992062 -13.46987724 21.9613018 C-13.47173151 20.13396381 -13.47535216 18.30662676 -13.48073006 16.47929573 C-13.48794036 13.92896671 -13.48899095 11.37870663 -13.48852539 8.82836914 C-13.49212067 8.06520386 -13.49571594 7.30203857 -13.49942017 6.51574707 C-13.48140857 -2.54250059 -7.73756135 0.00421895 0 0 Z M-3.375 10.1875 C-3.375 20.0875 -3.375 29.9875 -3.375 40.1875 C-0.405 40.249375 2.565 40.31125 5.625 40.375 C6.54410156 40.40231201 7.46320312 40.42962402 8.41015625 40.45776367 C14.17989246 40.51528784 18.37977559 39.63294793 23.625 37.1875 C27.34720418 33.36985469 28.76538659 30.16384708 28.875 24.875 C28.7911552 20.57096698 28.25996865 17.72823912 25.625 14.1875 C19.63253106 9.84802884 13.78776082 9.68265366 6.625 9.9375 C3.325 10.02 0.025 10.1025 -3.375 10.1875 Z " fill="#FFFFFF" transform="translate(631.375,607.8125)"/>
<path d="M0 0 C0.8146875 0.00257813 1.629375 0.00515625 2.46875 0.0078125 C3.2834375 0.00523437 4.098125 0.00265625 4.9375 0 C6.96875 0.1328125 6.96875 0.1328125 7.96875 1.1328125 C8.0571783 3.58085017 8.08410972 6.00126044 8.06640625 8.44921875 C8.06539917 9.09693237 8.06439209 9.744646 8.06335449 10.4119873 C8.05810843 12.83978029 8.04414725 15.26754811 8.03125 17.6953125 C8.010625 23.1196875 7.99 28.5440625 7.96875 34.1328125 C21.82875 34.4628125 35.68875 34.7928125 49.96875 35.1328125 C49.96875 23.5828125 49.96875 12.0328125 49.96875 0.1328125 C53.26875 0.1328125 56.56875 0.1328125 59.96875 0.1328125 C59.96875 27.5228125 59.96875 54.9128125 59.96875 83.1328125 C56.66875 83.1328125 53.36875 83.1328125 49.96875 83.1328125 C49.96875 70.5928125 49.96875 58.0528125 49.96875 45.1328125 C36.43875 45.1328125 22.90875 45.1328125 8.96875 45.1328125 C8.67940101 57.26440427 8.67940101 57.26440427 8.40063477 69.39624023 C8.36252736 70.91130532 8.32405957 72.4263614 8.28515625 73.94140625 C8.26868042 74.73518677 8.25220459 75.52896729 8.23522949 76.34680176 C8.0828218 82.0187407 8.0828218 82.0187407 6.96875 83.1328125 C5.28266034 83.20486761 3.59374341 83.21667318 1.90625 83.1953125 C0.52759766 83.18177734 0.52759766 83.18177734 -0.87890625 83.16796875 C-1.58917969 83.15636719 -2.29945313 83.14476562 -3.03125 83.1328125 C-3.05437328 72.45861552 -3.07216501 61.78442444 -3.08306217 51.11020756 C-3.08829103 46.15427328 -3.09538874 41.19835608 -3.10668945 36.24243164 C-3.11751822 31.46382414 -3.12352681 26.68523312 -3.12612724 21.9066143 C-3.12798151 20.07927631 -3.13160216 18.25193926 -3.13698006 16.42460823 C-3.14419036 13.87427921 -3.14524095 11.32401913 -3.14477539 8.77368164 C-3.14837067 8.01051636 -3.15196594 7.24735107 -3.15567017 6.46105957 C-3.14323153 0.20551898 -3.14323153 0.20551898 0 0 Z " fill="#FFFFFF" transform="translate(325.03125,607.8671875)"/>
<path d="M0 0 C1.34644592 -0.00472824 1.34644592 -0.00472824 2.72009277 -0.009552 C4.18412537 -0.00651566 4.18412537 -0.00651566 5.67773438 -0.00341797 C6.67276978 -0.00437469 7.66780518 -0.00533142 8.69299316 -0.00631714 C10.80135155 -0.00699907 12.90971203 -0.0051439 15.01806641 -0.00097656 C18.25753465 0.0043715 21.49686423 -0.00092114 24.73632812 -0.00732422 C26.77929718 -0.00666344 28.82226615 -0.00538228 30.86523438 -0.00341797 C31.8412561 -0.0054422 32.81727783 -0.00746643 33.82287598 -0.009552 C34.72050659 -0.00639984 35.61813721 -0.00324768 36.54296875 0 C37.73424377 0.00119339 37.73424377 0.00119339 38.94958496 0.00241089 C40.77148438 0.12939453 40.77148438 0.12939453 41.77148438 1.12939453 C41.90429688 2.94189453 41.90429688 2.94189453 41.89648438 5.12939453 C41.90035156 6.21220703 41.90035156 6.21220703 41.90429688 7.31689453 C41.77148438 9.12939453 41.77148438 9.12939453 40.77148438 10.12939453 C38.17789116 10.21790982 35.61108746 10.24465398 33.01757812 10.22705078 C32.2421315 10.22563583 31.46668488 10.22422089 30.66773987 10.22276306 C28.18144943 10.21714798 25.69524777 10.204593 23.20898438 10.19189453 C21.52734505 10.18688147 19.84570431 10.18231823 18.1640625 10.17822266 C14.03314108 10.16802285 9.90241256 10.14845058 5.77148438 10.12939453 C5.77148438 18.37939453 5.77148438 26.62939453 5.77148438 35.12939453 C8.14207031 35.11779297 10.51265625 35.10619141 12.95507812 35.09423828 C15.241942 35.08644757 17.52880441 35.08037089 19.81567383 35.07446289 C21.40943052 35.06942296 23.00318257 35.06259103 24.59692383 35.05395508 C26.8829869 35.04187455 29.16898905 35.03616298 31.45507812 35.03173828 C32.17175156 35.026577 32.88842499 35.02141571 33.6268158 35.01609802 C35.3421211 35.0159019 37.05729704 35.06747446 38.77148438 35.12939453 C39.77148438 36.12939453 39.77148438 36.12939453 39.77148438 44.12939453 C28.55148437 44.12939453 17.33148437 44.12939453 5.77148438 44.12939453 C5.77148438 54.02939453 5.77148438 63.92939453 5.77148438 74.12939453 C17.65148437 74.12939453 29.53148437 74.12939453 41.77148438 74.12939453 C41.77148438 77.09939453 41.77148438 80.06939453 41.77148438 83.12939453 C26.26148438 83.12939453 10.75148438 83.12939453 -5.22851562 83.12939453 C-5.26862443 62.70509751 -5.26862443 62.70509751 -5.27734375 54.02978516 C-5.28333223 48.09951895 -5.29043265 42.16926811 -5.30395508 36.23901367 C-5.31478385 31.46040617 -5.32079244 26.68181515 -5.32339287 21.90319633 C-5.32524714 20.07585834 -5.32886778 18.24852129 -5.33424568 16.42119026 C-5.34145598 13.87086124 -5.34250657 11.32060116 -5.34204102 8.77026367 C-5.34563629 8.00709839 -5.34923157 7.24393311 -5.35293579 6.4576416 C-5.34010593 0.00534959 -5.34010593 0.00534959 0 0 Z " fill="#FFFFFF" transform="translate(559.228515625,607.87060546875)"/>
<path d="M0 0 C3.3 0 6.6 0 10 0 C27.30990631 44.08867915 27.30990631 44.08867915 34.78018188 63.49542236 C35.34189671 64.95292248 35.90534443 66.40975597 36.47055054 67.86590576 C37.24828162 69.8710005 38.01959684 71.87844035 38.7890625 73.88671875 C39.21912598 75.00264404 39.64918945 76.11856934 40.09228516 77.26831055 C41 80 41 80 41 83 C37.7 83 34.4 83 31 83 C27.7 74.75 24.4 66.5 21 58 C10.44 58 -0.12 58 -11 58 C-14.3 66.25 -17.6 74.5 -21 83 C-24.3 83 -27.6 83 -31 83 C-30.36309098 77.4186806 -28.45422735 72.61393481 -26.38671875 67.44140625 C-26.02059982 66.51155411 -25.6544809 65.58170197 -25.27726746 64.62367249 C-24.08597016 61.60116214 -22.88672087 58.58187419 -21.6875 55.5625 C-20.8686444 53.48837853 -20.05045092 51.41399555 -19.23291016 49.33935547 C-18.00133217 46.21428125 -16.76934633 43.08937568 -15.53515625 39.96533203 C-11.94129487 30.86742363 -8.39722245 21.75084022 -4.875 12.625 C-4.36813119 11.31321368 -3.86121556 10.00144544 -3.35424805 8.68969727 C-2.23533888 5.79344932 -1.1171809 2.89691493 0 0 Z M5 13 C1.8686453 20.63402681 -0.97608146 28.35493449 -3.75 36.125 C-5.1525 40.04375 -6.555 43.9625 -8 48 C0.58 48 9.16 48 18 48 C16.4221875 43.5140625 16.4221875 43.5140625 14.8125 38.9375 C11.78884619 30.31923651 8.8526752 21.67633932 6 13 C5.67 13 5.34 13 5 13 Z " fill="#FFFFFF" transform="translate(856,608)"/>
<path d="M0 0 C3.46679688 0.04882812 3.46679688 0.04882812 6.93359375 0.09765625 C11.56728712 10.88106819 15.75661191 21.83923986 19.98901367 32.78442383 C21.23129398 35.99688494 22.47579187 39.20847953 23.72070312 42.41992188 C27.67986958 52.639543 31.62312107 62.86529546 35.5390625 73.1015625 C35.88326736 73.99810043 36.22747223 74.89463837 36.58210754 75.81834412 C36.89298813 76.63311722 37.20386871 77.44789032 37.52416992 78.28735352 C37.79766769 79.00238541 38.07116547 79.7174173 38.35295105 80.45411682 C38.93359375 82.09765625 38.93359375 82.09765625 38.93359375 83.09765625 C35.30359375 83.09765625 31.67359375 83.09765625 27.93359375 83.09765625 C24.63359375 74.84765625 21.33359375 66.59765625 17.93359375 58.09765625 C7.37359375 58.09765625 -3.18640625 58.09765625 -14.06640625 58.09765625 C-16.98627302 65.94993782 -16.98627302 65.94993782 -19.90014648 73.80444336 C-20.26309814 74.77647705 -20.6260498 75.74851074 -21 76.75 C-21.37181396 77.75023193 -21.74362793 78.75046387 -22.12670898 79.78100586 C-23.06640625 82.09765625 -23.06640625 82.09765625 -24.06640625 83.09765625 C-25.75249591 83.16971136 -27.44141284 83.18151693 -29.12890625 83.16015625 C-30.50755859 83.14662109 -30.50755859 83.14662109 -31.9140625 83.1328125 C-32.62433594 83.12121094 -33.33460938 83.10960937 -34.06640625 83.09765625 C-33.46425772 79.72523818 -32.62700264 76.66620365 -31.38330078 73.47631836 C-31.03813416 72.5851683 -30.69296753 71.69401825 -30.33734131 70.77586365 C-29.96176086 69.81857864 -29.58618042 68.86129364 -29.19921875 67.875 C-28.80816956 66.86885147 -28.41712036 65.86270294 -28.01422119 64.82606506 C-26.74397323 61.56084502 -25.46786472 58.29795289 -24.19140625 55.03515625 C-23.32214038 52.8054508 -22.45316293 50.57563289 -21.58447266 48.34570312 C-19.46391536 42.90518234 -17.33843222 37.46660099 -15.21166992 32.02850342 C-13.87970971 28.61988065 -12.55192622 25.2096476 -11.22525024 21.79896545 C-9.96655416 18.5641845 -8.70401035 15.33091388 -7.44140625 12.09765625 C-6.99941895 10.96191162 -6.55743164 9.82616699 -6.10205078 8.65600586 C-5.70614746 7.64675049 -5.31024414 6.63749512 -4.90234375 5.59765625 C-4.5676709 4.74171875 -4.23299805 3.88578125 -3.88818359 3.00390625 C-2.64714135 0.1251012 -2.64714135 0.1251012 0 0 Z M1.93359375 13.09765625 C1.53527344 14.16371094 1.13695312 15.22976563 0.7265625 16.328125 C-0.61143409 19.89847569 -1.96754507 23.46163565 -3.328125 27.0234375 C-4.13680731 29.15231011 -4.94539935 31.28121702 -5.75390625 33.41015625 C-6.16962891 34.49361328 -6.58535156 35.57707031 -7.01367188 36.69335938 C-7.40619141 37.73041016 -7.79871094 38.76746094 -8.203125 39.8359375 C-8.56108154 40.77477783 -8.91903809 41.71361816 -9.2878418 42.6809082 C-10.21972361 45.15039295 -10.21972361 45.15039295 -10.06640625 48.09765625 C-1.81640625 48.09765625 6.43359375 48.09765625 14.93359375 48.09765625 C12.45442955 39.80721397 12.45442955 39.80721397 9.671875 31.65234375 C9.27548828 30.55664062 8.87910156 29.4609375 8.47070312 28.33203125 C8.06658203 27.2234375 7.66246094 26.11484375 7.24609375 24.97265625 C6.83037109 23.82539062 6.41464844 22.678125 5.98632812 21.49609375 C4.97119177 18.6957176 3.95356946 15.89627259 2.93359375 13.09765625 C2.60359375 13.09765625 2.27359375 13.09765625 1.93359375 13.09765625 Z " fill="#FFFFFF" transform="translate(712.06640625,607.90234375)"/>
<path d="M0 0 C4.62 0 9.24 0 14 0 C14 42.24 14 84.48 14 128 C9.38 128 4.76 128 0 128 C0 85.76 0 43.52 0 0 Z " fill="#FFFFFF" transform="translate(743,449)"/>
<path d="M0 0 C-0.56054661 3.36327963 -1.41841038 5.99112219 -3 9 C-3.59425781 8.79503906 -4.18851562 8.59007812 -4.80078125 8.37890625 C-13.8852377 5.4261047 -22.84221262 3.52635651 -32 7 C-35.16666667 8.83333333 -35.16666667 8.83333333 -37 12 C-37.85510023 16.60089326 -37.89062992 20.32811577 -35.6640625 24.5078125 C-30.9257764 28.94040272 -24.73878711 30.72102422 -18.77148438 33.07421875 C-11.06327769 36.23373092 -4.16316131 39.97415834 1.0625 46.625 C2.93848008 53.3785283 3.32684106 61.0034795 0.375 67.5 C-1.80330959 71.10026168 -4.41904301 73.79331379 -8 76 C-8.6290625 76.39316406 -9.258125 76.78632812 -9.90625 77.19140625 C-20.32765446 82.45715111 -36.0587859 81.54510422 -47 78 C-47.99 77.34 -48.98 76.68 -50 76 C-50.29296875 73.8359375 -50.29296875 73.8359375 -50.1875 71.375 C-50.16042969 70.55773437 -50.13335937 69.74046875 -50.10546875 68.8984375 C-50.07066406 68.27195312 -50.03585938 67.64546875 -50 67 C-40 69 -40 69 -37.62109375 69.55078125 C-29.4331538 70.95407945 -18.29259852 71.70832817 -11 67 C-8.64098311 62.84813028 -8.5719056 58.70903844 -9 54 C-11.15681159 48.95146325 -14.66316788 47.24834551 -19.4375 45.0625 C-20.14817627 44.72114014 -20.85885254 44.37978027 -21.59106445 44.02807617 C-23.72143761 43.00558316 -25.85928049 42.0006196 -28 41 C-43.55489349 33.66795769 -43.55489349 33.66795769 -48 25 C-49.71342191 19.21270783 -49.94066635 13.38578917 -47.4375 7.8125 C-44.08618504 1.95061809 -39.69248372 -1.67323997 -33.3125 -3.875 C-22.84327242 -6.53184325 -9.18423963 -6.12282642 0 0 Z " fill="#FFFFFF" transform="translate(274,612)"/>
<path d="M0 0 C1.55622858 -0.21756982 3.12136107 -0.37196528 4.6875 -0.5 C5.99267578 -0.63921875 5.99267578 -0.63921875 7.32421875 -0.78125 C10.88396701 0.25809256 11.82567829 2.20627196 13.59155273 5.34375 C14.05634033 6.2203125 14.52112793 7.096875 15 8 C15.58273682 9.0621875 16.16547363 10.124375 16.76586914 11.21875 C18.76859073 14.8806058 20.72888698 18.56442261 22.6875 22.25 C23.37019595 23.5287776 24.05313697 24.80742439 24.73632812 26.0859375 C30.04622997 36.03596828 30.04622997 36.03596828 32 40 C32.31114746 39.42781738 32.62229492 38.85563477 32.94287109 38.26611328 C39.90079264 25.47630447 46.90508227 12.71434372 54 0 C57.3 0 60.6 0 64 0 C63.40901748 3.77799158 62.32400472 6.62325437 60.48046875 9.96484375 C59.69687988 11.39376953 59.69687988 11.39376953 58.89746094 12.8515625 C58.05103027 14.37910156 58.05103027 14.37910156 57.1875 15.9375 C56.61161133 17.00871094 56.03572266 18.07992187 55.44238281 19.18359375 C52.63808328 24.37300128 49.77264437 29.43574969 46.50390625 34.34765625 C36.35707843 50.10590818 36.30650887 64.80100745 37 83 C33.7 83 30.4 83 27 83 C27.03254883 82.11554199 27.06509766 81.23108398 27.09863281 80.31982422 C27.63069009 61.14835843 26.74674399 47.11243124 15.77294922 30.74658203 C12.47281222 25.63414176 9.68120868 20.23717356 6.8125 14.875 C6.24821289 13.84818115 5.68392578 12.8213623 5.10253906 11.76342773 C4.58014648 10.80766846 4.05775391 9.85190918 3.51953125 8.8671875 C3.05651611 8.02269043 2.59350098 7.17819336 2.11645508 6.30810547 C1.09220495 4.19062008 0.46402962 2.29732695 0 0 Z " fill="#FFFFFF" transform="translate(396,608)"/>
<path d="M0 0 C7.93613787 -0.02312764 15.87226176 -0.04091723 23.80842495 -0.05181217 C27.49314498 -0.05704008 31.17784203 -0.06413605 34.86254883 -0.07543945 C38.41570831 -0.08627162 41.96884563 -0.09227753 45.52202034 -0.09487724 C46.88045666 -0.0967309 48.23889171 -0.10035038 49.59731865 -0.10573006 C51.49382223 -0.11294475 53.39034793 -0.11340809 55.28686523 -0.11352539 C56.36830307 -0.115746 57.44974091 -0.11796661 58.56394958 -0.12025452 C61 0 61 0 62 1 C62.1328125 2.8125 62.1328125 2.8125 62.125 5 C62.12886719 6.0828125 62.12886719 6.0828125 62.1328125 7.1875 C62 9 62 9 61 10 C52.75 10 44.5 10 36 10 C36 34.09 36 58.18 36 83 C32.7 83 29.4 83 26 83 C26 58.91 26 34.82 26 10 C17.42 10 8.84 10 0 10 C0 6.7 0 3.4 0 0 Z " fill="#FFFFFF" transform="translate(156,608)"/>
<path d="M0 0 C4.62 0 9.24 0 14 0 C14 29.7 14 59.4 14 90 C9.38 90 4.76 90 0 90 C0 60.3 0 30.6 0 0 Z " fill="#FFFFFF" transform="translate(457,487)"/>
<path d="M0 0 C0.8146875 0.00257813 1.629375 0.00515625 2.46875 0.0078125 C3.2834375 0.00523437 4.098125 0.00265625 4.9375 0 C6.96875 0.1328125 6.96875 0.1328125 7.96875 1.1328125 C8.06381052 3.68871138 8.09431761 6.21749222 8.08227539 8.77368164 C8.08242142 9.57362045 8.08256744 10.37355927 8.0827179 11.19773865 C8.08201855 13.85450915 8.07422518 16.51121043 8.06640625 19.16796875 C8.06454215 21.00499941 8.06311821 22.84203056 8.06211853 24.67906189 C8.05829275 29.52390912 8.04846196 34.36872658 8.03741455 39.21356201 C8.02720172 44.15343828 8.02262119 49.09331935 8.01757812 54.03320312 C8.00683974 63.73308603 7.9897626 73.43294679 7.96875 83.1328125 C4.33875 83.1328125 0.70875 83.1328125 -3.03125 83.1328125 C-3.05437328 72.45861552 -3.07216501 61.78442444 -3.08306217 51.11020756 C-3.08829103 46.15427328 -3.09538874 41.19835608 -3.10668945 36.24243164 C-3.11751822 31.46382414 -3.12352681 26.68523312 -3.12612724 21.9066143 C-3.12798151 20.07927631 -3.13160216 18.25193926 -3.13698006 16.42460823 C-3.14419036 13.87427921 -3.14524095 11.32401913 -3.14477539 8.77368164 C-3.14837067 8.01051636 -3.15196594 7.24735107 -3.15567017 6.46105957 C-3.14323153 0.20551898 -3.14323153 0.20551898 0 0 Z " fill="#FFFFFF" transform="translate(137.03125,607.8671875)"/>
<path d="M0 0 C2.89282587 1.54284046 4.5579181 2.70087588 5.63671875 5.87109375 C6.25898258 9.41063747 6.20070996 11.51407061 4.8125 14.875 C2.87757787 17.14352939 1.86076556 18.18263841 -1 19 C-4.52467729 18.85313845 -6.4525643 18.39948011 -9.3125 16.3125 C-11.41264098 13.43452903 -11.85508698 11.55036906 -12 8 C-11.23216002 4.9984437 -10.39802482 3.41223999 -8.25 1.1875 C-5.22105071 -0.41111212 -3.38597949 -0.48371136 0 0 Z " fill="#FFFFFF" transform="translate(467,453)"/>
</svg>
